<svg xmlns="http://www.w3.org/2000/svg" xmlns:xlink="http://www.w3.org/1999/xlink" xmlns:lucid="lucid" width="1140" height="725.17"><g transform="translate(-50 -480)" lucid:page-tab-id="0_0"><path d="M0 0h1870.87v1322.83H0z" fill="#fff"/><path d="M390 1021.17c0-3.32 2.7-6 6-6h768c3.3 0 6 2.68 6 6v68c0 3.3-2.7 6-6 6H396c-3.3 0-6-2.7-6-6z" stroke="#5e5e5e" stroke-width="3" fill="#fff"/><use xlink:href="#a" transform="matrix(1,0,0,1,395,1020.166667) translate(317.8703703703704 39.65277777777778)"/><use xlink:href="#b" transform="matrix(1,0,0,1,395,1020.166667) translate(378.3024691358025 39.65277777777778)"/><path d="M425 1041.17c0-3.32 2.7-6 6-6h48c3.3 0 6 2.68 6 6v28c0 3.3-2.7 6-6 6h-48c-3.3 0-6-2.7-6-6z" stroke="#5e5e5e" stroke-width="3" fill="#c1e4f7"/><use xlink:href="#c" transform="matrix(1,0,0,1,430,1040.166667) translate(4.660493827160497 19.65277777777778)"/><path d="M1050 1141.17c0-3.32 2.7-6 6-6h28c3.3 0 6 2.68 6 6v28c0 3.3-2.7 6-6 6h-28c-3.3 0-6-2.7-6-6z" stroke="#5e5e5e" stroke-width="3" fill="#ffdba9"/><use xlink:href="#d" transform="matrix(1,0,0,1,1055,1140.166667) translate(3.117283950617285 19.65277777777778)"/><path d="M735 1131.17c0-3.32 2.7-6 6-6h228c3.3 0 6 2.68 6 6v48c0 3.3-2.7 6-6 6H741c-3.3 0-6-2.7-6-6z" stroke="#000" stroke-opacity="0" stroke-width="3" fill="#fff" fill-opacity="0"/><use xlink:href="#e" transform="matrix(1,0,0,1,740,1130.166667) translate(98.33333333333333 30.27777777777778)"/><path d="M422.5 1053.67H236c-3.3 0-6-2.7-6-6v-64.33" stroke="#5e5e5e" stroke-width="2" fill="none"/><path d="M423.5 1054.67h-1.03v-2h1.03" fill="#5e5e5e"/><path d="M230 968.07l4.64 14.27h-9.28z" stroke="#5e5e5e" stroke-width="2" fill="#5e5e5e"/><path d="M120 906c0-3.3 2.7-6 6-6h208c3.3 0 6 2.7 6 6v51.33c0 3.32-2.7 6-6 6H126c-3.3 0-6-2.68-6-6z" stroke="#5e5e5e" stroke-width="3" fill="#b2d6ef"/><use xlink:href="#f" transform="matrix(1,0,0,1,125,905) translate(51.41975308641976 17.77777777777778)"/><use xlink:href="#g" transform="matrix(1,0,0,1,125,905) translate(44.012345679012356 44.44444444444444)"/><path d="M130.67 826c0-3.3 2.68-6 6-6h28c3.3 0 6 2.7 6 6v28c0 3.3-2.7 6-6 6h-28c-3.32 0-6-2.7-6-6z" stroke="#5e5e5e" stroke-width="3" fill="#ffdf71"/><use xlink:href="#h" transform="matrix(1,0,0,1,135.66666666666666,825) translate(7.438271604938272 19.65277777777778)"/><path d="M150.67 897.5V880" stroke="#5e5e5e" stroke-width="2" fill="none"/><path d="M151.67 898.5h-2v-1.03h2" fill="#5e5e5e"/><path d="M150.67 864.74L155.3 879h-9.27z" stroke="#5e5e5e" stroke-width="2" fill="#5e5e5e"/><path d="M200 826c0-3.3 2.7-6 6-6h28c3.3 0 6 2.7 6 6v28c0 3.3-2.7 6-6 6h-28c-3.3 0-6-2.7-6-6z" stroke="#5e5e5e" stroke-width="3" fill="#ffdf71"/><use xlink:href="#i" transform="matrix(1,0,0,1,205,825) translate(7.438271604938272 19.65277777777778)"/><path d="M220 897.5V880M220 897.47v1.03" stroke="#5e5e5e" stroke-width="2" fill="none"/><path d="M220 864.74l4.64 14.26h-9.28z" stroke="#5e5e5e" stroke-width="2" fill="#5e5e5e"/><path d="M300 826c0-3.3 2.7-6 6-6h28c3.3 0 6 2.7 6 6v28c0 3.3-2.7 6-6 6h-28c-3.3 0-6-2.7-6-6z" stroke="#5e5e5e" stroke-width="3" fill="#ffdf71"/><use xlink:href="#j" transform="matrix(1,0,0,1,305,825) translate(7.438271604938272 19.65277777777778)"/><path d="M320 897.5V880M320 897.47v1.03" stroke="#5e5e5e" stroke-width="2" fill="none"/><path d="M320 864.74l4.64 14.26h-9.28z" stroke="#5e5e5e" stroke-width="2" fill="#5e5e5e"/><path d="M240 832.67c0-3.32 2.7-6 6-6h48c3.3 0 6 2.68 6 6V854c0 3.3-2.7 6-6 6h-48c-3.3 0-6-2.7-6-6z" stroke="#000" stroke-opacity="0" stroke-width="3" fill="#fff" fill-opacity="0"/><use xlink:href="#e" transform="matrix(1,0,0,1,245,831.6666666666666) translate(8.333333333333332 19.27777777777778)"/><path d="M1070 1132.67v-17.5" stroke="#5e5e5e" stroke-width="2" fill="none"/><path d="M1071 1133.67h-2v-1.03h2" fill="#5e5e5e"/><path d="M1070 1099.9l4.64 14.27h-9.28z" stroke="#5e5e5e" stroke-width="2" fill="#5e5e5e"/><path d="M620 942.67c0-3.32 2.7-6 6-6h28c3.3 0 6 2.68 6 6v28c0 3.3-2.7 6-6 6h-28c-3.3 0-6-2.7-6-6z" stroke="#5e5e5e" stroke-width="3" fill="#ff8f80"/><use xlink:href="#k" transform="matrix(1,0,0,1,625,941.666667) translate(7.006172839506173 19.65277777777778)"/><path d="M640 1014.17v-17.5M640 1014.14v1.03" stroke="#5e5e5e" stroke-width="2" fill="none"/><path d="M640 981.4l4.64 14.27h-9.28z" stroke="#5e5e5e" stroke-width="2" fill="#5e5e5e"/><path d="M660 917.67c0-3.32 2.7-6 6-6h28c3.3 0 6 2.68 6 6v28c0 3.3-2.7 6-6 6h-28c-3.3 0-6-2.7-6-6z" stroke="#5e5e5e" stroke-width="3" fill="#f9d2de"/><use xlink:href="#l" transform="matrix(1,0,0,1,665,916.6666666666666) translate(3.9814814814814827 19.65277777777778)"/><path d="M700 893.58c0-3.3 2.7-6 6-6h28c3.3 0 6 2.7 6 6v28c0 3.32-2.7 6-6 6h-28c-3.3 0-6-2.68-6-6z" stroke="#5e5e5e" stroke-width="3" fill="#c7e8ac"/><use xlink:href="#m" transform="matrix(1,0,0,1,705,892.5833335) translate(3.117283950617285 19.65277777777778)"/><path d="M680 909.17V820" stroke="#5e5e5e" stroke-width="2" fill="none"/><path d="M681 910.17h-2v-1.03h2" fill="#5e5e5e"/><path d="M680 804.74l4.64 14.26h-9.28z" stroke="#5e5e5e" stroke-width="2" fill="#5e5e5e"/><path d="M720 885.08V820" stroke="#5e5e5e" stroke-width="2" fill="none"/><path d="M721 886.08h-2v-1.02h2" fill="#5e5e5e"/><path d="M720 804.74l4.64 14.26h-9.28z" stroke="#5e5e5e" stroke-width="2" fill="#5e5e5e"/><path d="M1050 942.67c0-3.32 2.7-6 6-6h28c3.3 0 6 2.68 6 6v28c0 3.3-2.7 6-6 6h-28c-3.3 0-6-2.7-6-6z" stroke="#5e5e5e" stroke-width="3" fill="#ff8f80"/><use xlink:href="#k" transform="matrix(1,0,0,1,1055,941.666667) translate(7.006172839506173 19.65277777777778)"/><path d="M1070 1014.17v-17.5M1070 1014.14v1.03" stroke="#5e5e5e" stroke-width="2" fill="none"/><path d="M1070 981.4l4.64 14.27h-9.28z" stroke="#5e5e5e" stroke-width="2" fill="#5e5e5e"/><path d="M1090 917.67c0-3.32 2.7-6 6-6h28c3.3 0 6 2.68 6 6v28c0 3.3-2.7 6-6 6h-28c-3.3 0-6-2.7-6-6z" stroke="#5e5e5e" stroke-width="3" fill="#f9d2de"/><use xlink:href="#l" transform="matrix(1,0,0,1,1095,916.6666666666666) translate(3.9814814814814827 19.65277777777778)"/><path d="M1130 893.58c0-3.3 2.7-6 6-6h28c3.3 0 6 2.7 6 6v28c0 3.32-2.7 6-6 6h-28c-3.3 0-6-2.68-6-6z" stroke="#5e5e5e" stroke-width="3" fill="#c7e8ac"/><use xlink:href="#m" transform="matrix(1,0,0,1,1135,892.5833335) translate(3.117283950617285 19.65277777777778)"/><path d="M1110 909.17V820" stroke="#5e5e5e" stroke-width="2" fill="none"/><path d="M1111 910.17h-2v-1.03h2" fill="#5e5e5e"/><path d="M1110 804.74l4.64 14.26h-9.28z" stroke="#5e5e5e" stroke-width="2" fill="#5e5e5e"/><path d="M1150 885.08V820" stroke="#5e5e5e" stroke-width="2" fill="none"/><path d="M1151 886.08h-2v-1.02h2" fill="#5e5e5e"/><path d="M1150 804.74l4.64 14.26h-9.28z" stroke="#5e5e5e" stroke-width="2" fill="#5e5e5e"/><path d="M620 1141.17c0-3.32 2.7-6 6-6h28c3.3 0 6 2.68 6 6v28c0 3.3-2.7 6-6 6h-28c-3.3 0-6-2.7-6-6z" stroke="#5e5e5e" stroke-width="3" fill="#ffdba9"/><use xlink:href="#n" transform="matrix(1,0,0,1,625,1140.166667) translate(3.117283950617285 19.65277777777778)"/><path d="M640 1132.67v-17.5" stroke="#5e5e5e" stroke-width="2" fill="none"/><path d="M641 1133.67h-2v-1.03h2" fill="#5e5e5e"/><path d="M640 1099.9l4.64 14.27h-9.28z" stroke="#5e5e5e" stroke-width="2" fill="#5e5e5e"/><path d="M435 942.67c0-3.32 2.7-6 6-6h28c3.3 0 6 2.68 6 6v28c0 3.3-2.7 6-6 6h-28c-3.3 0-6-2.7-6-6z" stroke="#5e5e5e" stroke-width="3" fill="#ff8f80"/><use xlink:href="#k" transform="matrix(1,0,0,1,440,941.666667) translate(7.006172839506173 19.65277777777778)"/><path d="M455 1032.67v-36" stroke="#5e5e5e" stroke-width="2" fill="none"/><path d="M456 1033.67h-2v-1.03h2" fill="#5e5e5e"/><path d="M455 981.4l4.64 14.27h-9.28z" stroke="#5e5e5e" stroke-width="2" fill="#5e5e5e"/><path d="M475 917.67c0-3.32 2.7-6 6-6h28c3.3 0 6 2.68 6 6v28c0 3.3-2.7 6-6 6h-28c-3.3 0-6-2.7-6-6z" stroke="#5e5e5e" stroke-width="3" fill="#f9d2de"/><use xlink:href="#l" transform="matrix(1,0,0,1,480,916.6666666666666) translate(3.9814814814814827 19.65277777777778)"/><path d="M515 893.58c0-3.3 2.7-6 6-6h28c3.3 0 6 2.7 6 6v28c0 3.32-2.7 6-6 6h-28c-3.3 0-6-2.68-6-6z" stroke="#5e5e5e" stroke-width="3" fill="#c7e8ac"/><use xlink:href="#m" transform="matrix(1,0,0,1,520,892.5833335) translate(3.117283950617285 19.65277777777778)"/><path d="M495 909.17V820" stroke="#5e5e5e" stroke-width="2" fill="none"/><path d="M496 910.17h-2v-1.03h2" fill="#5e5e5e"/><path d="M495 804.74l4.64 14.26h-9.28z" stroke="#5e5e5e" stroke-width="2" fill="#5e5e5e"/><path d="M535 885.08V820" stroke="#5e5e5e" stroke-width="2" fill="none"/><path d="M536 886.08h-2v-1.02h2" fill="#5e5e5e"/><path d="M535 804.74l4.64 14.26h-9.28z" stroke="#5e5e5e" stroke-width="2" fill="#5e5e5e"/><path d="M435 1139.67c0-3.32 2.7-6 6-6h28c3.3 0 6 2.68 6 6v28c0 3.3-2.7 6-6 6h-28c-3.3 0-6-2.7-6-6z" stroke="#5e5e5e" stroke-width="3" fill="#ffdba9"/><use xlink:href="#o" transform="matrix(1,0,0,1,440,1138.666667) translate(3.117283950617285 19.65277777777778)"/><path d="M455 1131.17v-17.5" stroke="#5e5e5e" stroke-width="2" fill="none"/><path d="M456 1132.17h-2v-1.03h2" fill="#5e5e5e"/><path d="M455 1098.4l4.64 14.27h-9.28z" stroke="#5e5e5e" stroke-width="2" fill="#5e5e5e"/><path d="M780 677.5v-79" stroke="#5e5e5e" stroke-width="2" fill="none"/><path d="M781 678.5h-2v-1.03h2" fill="#5e5e5e"/><path d="M780 583.24l4.64 14.26h-9.28z" stroke="#5e5e5e" stroke-width="2" fill="#5e5e5e"/><g class="lucid-layer" lucid:layer-id="Q4lEdk_L8SxC" display="block"><path d="M70 806c0-3.3 2.7-6 6-6h288c3.3 0 6 2.7 6 6v178c0 3.3-2.7 6-6 6H76c-3.3 0-6-2.7-6-6z" stroke="#5e5e5e" stroke-width="3" fill-opacity="0"/><path d="M70 766c0-3.3 2.7-6 6-6h278c3.3 0 6 2.7 6 6v21.33c0 3.32-2.7 6-6 6H76c-3.3 0-6-2.68-6-6z" stroke="#000" stroke-opacity="0" stroke-width="3" fill="#fff" fill-opacity="0"/><use xlink:href="#p" transform="matrix(1,0,0,1,75,765) translate(11.820987654320987 19.27777777777778)"/><use xlink:href="#q" transform="matrix(1,0,0,1,75,765) translate(96.26543209876543 19.27777777777778)"/><use xlink:href="#r" transform="matrix(1,0,0,1,75,765) translate(177.00617283950618 19.27777777777778)"/><path d="M215 759v-13c0-3.3 2.7-6 6-6h150.5" stroke="#5e5e5e" stroke-width="2" fill="none"/><path d="M216 760h-2v-1.03h2" fill="#5e5e5e"/><path d="M386.76 740l-14.26 4.64v-9.28z" stroke="#5e5e5e" stroke-width="2" fill="#5e5e5e"/></g><g class="lucid-layer" lucid:layer-id="t~lETiF_fioH" display="block"><path d="M432.5 530c0-16.57 13.43-30 30-30h635c16.57 0 30 13.43 30 30v60c0 16.57-13.43 30-30 30h-635c-16.57 0-30-13.43-30-30z" fill-opacity="0"/><path d="M434 530c0 .83-.67 1.5-1.5 1.5s-1.5-.67-1.5-1.5.67-1.5 1.5-1.5 1.5.67 1.5 1.5zm2.36-11.45c0 .83-.67 1.5-1.5 1.5-.82 0-1.5-.67-1.5-1.5 0-.82.68-1.5 1.5-1.5.83 0 1.5.68 1.5 1.5zm6.5-9.7c0 .82-.68 1.5-1.5 1.5-.84 0-1.5-.68-1.5-1.5 0-.83.66-1.5 1.5-1.5.82 0 1.5.67 1.5 1.5zm9.67-6.55c0 .83-.67 1.5-1.5 1.5s-1.5-.67-1.5-1.5.67-1.5 1.5-1.5 1.5.67 1.5 1.5zM464 500c0 .83-.67 1.5-1.5 1.5s-1.5-.67-1.5-1.5.67-1.5 1.5-1.5 1.5.67 1.5 1.5zm11.98 0c0 .83-.67 1.5-1.5 1.5s-1.5-.67-1.5-1.5.67-1.5 1.5-1.5 1.5.67 1.5 1.5zm11.98 0c0 .83-.67 1.5-1.5 1.5s-1.5-.67-1.5-1.5.67-1.5 1.5-1.5 1.5.67 1.5 1.5zm11.98 0c0 .83-.67 1.5-1.5 1.5s-1.5-.67-1.5-1.5.67-1.5 1.5-1.5 1.5.67 1.5 1.5zm11.98 0c0 .83-.67 1.5-1.5 1.5-.82 0-1.5-.67-1.5-1.5s.68-1.5 1.5-1.5c.83 0 1.5.67 1.5 1.5zm12 0c0 .83-.7 1.5-1.5 1.5-.84 0-1.5-.67-1.5-1.5s.66-1.5 1.5-1.5c.8 0 1.5.67 1.5 1.5zm11.97 0c0 .83-.68 1.5-1.5 1.5-.84 0-1.5-.67-1.5-1.5s.66-1.5 1.5-1.5c.82 0 1.5.67 1.5 1.5zm11.97 0c0 .83-.67 1.5-1.5 1.5s-1.5-.67-1.5-1.5.67-1.5 1.5-1.5 1.5.67 1.5 1.5zm11.98 0c0 .83-.67 1.5-1.5 1.5s-1.5-.67-1.5-1.5.67-1.5 1.5-1.5 1.5.67 1.5 1.5zm11.98 0c0 .83-.67 1.5-1.5 1.5s-1.5-.67-1.5-1.5.67-1.5 1.5-1.5 1.5.67 1.5 1.5zm11.98 0c0 .83-.66 1.5-1.5 1.5-.82 0-1.5-.67-1.5-1.5s.68-1.5 1.5-1.5c.84 0 1.5.67 1.5 1.5zm12 0c0 .83-.68 1.5-1.5 1.5-.84 0-1.5-.67-1.5-1.5s.66-1.5 1.5-1.5c.82 0 1.5.67 1.5 1.5zm11.97 0c0 .83-.67 1.5-1.5 1.5-.82 0-1.5-.67-1.5-1.5s.68-1.5 1.5-1.5c.83 0 1.5.67 1.5 1.5zm11.98 0c0 .83-.67 1.5-1.5 1.5-.82 0-1.5-.67-1.5-1.5s.68-1.5 1.5-1.5c.83 0 1.5.67 1.5 1.5zm12 0c0 .83-.7 1.5-1.5 1.5-.84 0-1.5-.67-1.5-1.5s.66-1.5 1.5-1.5c.8 0 1.5.67 1.5 1.5zm11.97 0c0 .83-.67 1.5-1.5 1.5s-1.5-.67-1.5-1.5.67-1.5 1.5-1.5 1.5.67 1.5 1.5zm11.98 0c0 .83-.67 1.5-1.5 1.5s-1.5-.67-1.5-1.5.67-1.5 1.5-1.5 1.5.67 1.5 1.5zm11.98 0c0 .83-.67 1.5-1.5 1.5s-1.5-.67-1.5-1.5.67-1.5 1.5-1.5 1.5.67 1.5 1.5zm11.98 0c0 .83-.67 1.5-1.5 1.5s-1.5-.67-1.5-1.5.67-1.5 1.5-1.5 1.5.67 1.5 1.5zm11.98 0c0 .83-.67 1.5-1.5 1.5s-1.5-.67-1.5-1.5.67-1.5 1.5-1.5 1.5.67 1.5 1.5zm11.98 0c0 .83-.67 1.5-1.5 1.5s-1.5-.67-1.5-1.5.67-1.5 1.5-1.5 1.5.67 1.5 1.5zm11.98 0c0 .83-.67 1.5-1.5 1.5-.82 0-1.5-.67-1.5-1.5s.68-1.5 1.5-1.5c.83 0 1.5.67 1.5 1.5zm11.98 0c0 .83-.67 1.5-1.5 1.5-.82 0-1.5-.67-1.5-1.5s.68-1.5 1.5-1.5c.83 0 1.5.67 1.5 1.5zm12 0c0 .83-.7 1.5-1.5 1.5-.84 0-1.5-.67-1.5-1.5s.66-1.5 1.5-1.5c.8 0 1.5.67 1.5 1.5zm11.97 0c0 .83-.67 1.5-1.5 1.5s-1.5-.67-1.5-1.5.67-1.5 1.5-1.5 1.5.67 1.5 1.5zm11.98 0c0 .83-.67 1.5-1.5 1.5s-1.5-.67-1.5-1.5.67-1.5 1.5-1.5 1.5.67 1.5 1.5zm11.98 0c0 .83-.66 1.5-1.5 1.5-.82 0-1.5-.67-1.5-1.5s.68-1.5 1.5-1.5c.84 0 1.5.67 1.5 1.5zm12 0c0 .83-.68 1.5-1.5 1.5-.84 0-1.5-.67-1.5-1.5s.66-1.5 1.5-1.5c.82 0 1.5.67 1.5 1.5zm11.97 0c0 .83-.67 1.5-1.5 1.5s-1.5-.67-1.5-1.5.67-1.5 1.5-1.5 1.5.67 1.5 1.5zm11.98 0c0 .83-.67 1.5-1.5 1.5s-1.5-.67-1.5-1.5.67-1.5 1.5-1.5 1.5.67 1.5 1.5zm11.98 0c0 .83-.67 1.5-1.5 1.5-.82 0-1.5-.67-1.5-1.5s.68-1.5 1.5-1.5c.83 0 1.5.67 1.5 1.5zm12 0c0 .83-.7 1.5-1.5 1.5-.84 0-1.5-.67-1.5-1.5s.66-1.5 1.5-1.5c.8 0 1.5.67 1.5 1.5zm11.97 0c0 .83-.68 1.5-1.5 1.5-.83 0-1.5-.67-1.5-1.5s.67-1.5 1.5-1.5c.82 0 1.5.67 1.5 1.5zm11.98 0c0 .83-.67 1.5-1.5 1.5s-1.5-.67-1.5-1.5.67-1.5 1.5-1.5 1.5.67 1.5 1.5zm11.98 0c0 .83-.67 1.5-1.5 1.5s-1.5-.67-1.5-1.5.67-1.5 1.5-1.5 1.5.67 1.5 1.5zm11.98 0c0 .83-.67 1.5-1.5 1.5s-1.5-.67-1.5-1.5.67-1.5 1.5-1.5 1.5.67 1.5 1.5zm11.98 0c0 .83-.67 1.5-1.5 1.5s-1.5-.67-1.5-1.5.67-1.5 1.5-1.5 1.5.67 1.5 1.5zm11.98 0c0 .83-.67 1.5-1.5 1.5s-1.5-.67-1.5-1.5.67-1.5 1.5-1.5 1.5.67 1.5 1.5zm11.98 0c0 .83-.67 1.5-1.5 1.5s-1.5-.67-1.5-1.5.67-1.5 1.5-1.5 1.5.67 1.5 1.5zm11.98 0c0 .83-.67 1.5-1.5 1.5-.82 0-1.5-.67-1.5-1.5s.68-1.5 1.5-1.5c.83 0 1.5.67 1.5 1.5zm12 0c0 .83-.7 1.5-1.5 1.5-.84 0-1.5-.67-1.5-1.5s.66-1.5 1.5-1.5c.8 0 1.5.67 1.5 1.5zm11.97 0c0 .83-.68 1.5-1.5 1.5-.83 0-1.5-.67-1.5-1.5s.67-1.5 1.5-1.5c.82 0 1.5.67 1.5 1.5zm11.98 0c0 .83-.66 1.5-1.5 1.5-.82 0-1.5-.67-1.5-1.5s.68-1.5 1.5-1.5c.84 0 1.5.67 1.5 1.5zm12 0c0 .83-.68 1.5-1.5 1.5-.84 0-1.5-.67-1.5-1.5s.66-1.5 1.5-1.5c.82 0 1.5.67 1.5 1.5zm11.97 0c0 .83-.67 1.5-1.5 1.5s-1.5-.67-1.5-1.5.67-1.5 1.5-1.5 1.5.67 1.5 1.5zm11.98 0c0 .83-.67 1.5-1.5 1.5s-1.5-.67-1.5-1.5.67-1.5 1.5-1.5 1.5.67 1.5 1.5zm11.98 0c0 .83-.67 1.5-1.5 1.5s-1.5-.67-1.5-1.5.67-1.5 1.5-1.5 1.5.67 1.5 1.5zm11.98 0c0 .83-.66 1.5-1.5 1.5-.82 0-1.5-.67-1.5-1.5s.68-1.5 1.5-1.5c.84 0 1.5.67 1.5 1.5zm12 0c0 .83-.68 1.5-1.5 1.5-.83 0-1.5-.67-1.5-1.5s.67-1.5 1.5-1.5c.82 0 1.5.67 1.5 1.5zm11.98 0c0 .83-.68 1.5-1.5 1.5-.83 0-1.5-.67-1.5-1.5s.67-1.5 1.5-1.5c.82 0 1.5.67 1.5 1.5zm11.98 0c0 .83-.67 1.5-1.5 1.5s-1.5-.67-1.5-1.5.67-1.5 1.5-1.5 1.5.67 1.5 1.5zm11.98 0c0 .83-.67 1.5-1.5 1.5s-1.5-.67-1.5-1.5.67-1.5 1.5-1.5 1.5.67 1.5 1.5zm11.98 0c0 .83-.67 1.5-1.5 1.5s-1.5-.67-1.5-1.5.67-1.5 1.5-1.5 1.5.67 1.5 1.5zm11.98 0c0 .83-.67 1.5-1.5 1.5s-1.5-.67-1.5-1.5.67-1.5 1.5-1.5 1.5.67 1.5 1.5zm11.45 2.36c0 .83-.68 1.5-1.5 1.5-.83 0-1.5-.67-1.5-1.5 0-.82.67-1.5 1.5-1.5.82 0 1.5.68 1.5 1.5zm9.7 6.5c0 .82-.67 1.5-1.5 1.5-.82 0-1.5-.68-1.5-1.5 0-.84.68-1.5 1.5-1.5.83 0 1.5.66 1.5 1.5zm6.55 9.67c0 .83-.67 1.5-1.5 1.5s-1.5-.67-1.5-1.5.67-1.5 1.5-1.5 1.5.67 1.5 1.5zM1129 530c0 .83-.67 1.5-1.5 1.5s-1.5-.67-1.5-1.5.67-1.5 1.5-1.5 1.5.67 1.5 1.5zm0 12c0 .83-.67 1.5-1.5 1.5s-1.5-.67-1.5-1.5.67-1.5 1.5-1.5 1.5.67 1.5 1.5zm0 12c0 .83-.67 1.5-1.5 1.5s-1.5-.67-1.5-1.5.67-1.5 1.5-1.5 1.5.67 1.5 1.5zm0 12c0 .83-.67 1.5-1.5 1.5s-1.5-.67-1.5-1.5.67-1.5 1.5-1.5 1.5.67 1.5 1.5zm0 12c0 .83-.67 1.5-1.5 1.5s-1.5-.67-1.5-1.5.67-1.5 1.5-1.5 1.5.67 1.5 1.5zm0 12c0 .83-.67 1.5-1.5 1.5s-1.5-.67-1.5-1.5.67-1.5 1.5-1.5 1.5.67 1.5 1.5zm-2.36 11.45c0 .82-.68 1.5-1.5 1.5-.83 0-1.5-.68-1.5-1.5 0-.83.67-1.5 1.5-1.5.82 0 1.5.67 1.5 1.5zm-6.5 9.7c0 .83-.66 1.5-1.5 1.5-.82 0-1.5-.67-1.5-1.5 0-.82.68-1.5 1.5-1.5.84 0 1.5.68 1.5 1.5zm-9.67 6.55c0 .83-.67 1.5-1.5 1.5s-1.5-.67-1.5-1.5.67-1.5 1.5-1.5 1.5.67 1.5 1.5zM1099 620c0 .83-.67 1.5-1.5 1.5s-1.5-.67-1.5-1.5.67-1.5 1.5-1.5 1.5.67 1.5 1.5zm-11.98 0c0 .83-.67 1.5-1.5 1.5s-1.5-.67-1.5-1.5.67-1.5 1.5-1.5 1.5.67 1.5 1.5zm-11.98 0c0 .83-.67 1.5-1.5 1.5s-1.5-.67-1.5-1.5.67-1.5 1.5-1.5 1.5.67 1.5 1.5zm-11.98 0c0 .83-.67 1.5-1.5 1.5s-1.5-.67-1.5-1.5.67-1.5 1.5-1.5 1.5.67 1.5 1.5zm-11.98 0c0 .83-.68 1.5-1.5 1.5-.83 0-1.5-.67-1.5-1.5s.67-1.5 1.5-1.5c.82 0 1.5.67 1.5 1.5zm-12 0c0 .83-.66 1.5-1.5 1.5-.8 0-1.5-.67-1.5-1.5s.7-1.5 1.5-1.5c.84 0 1.5.67 1.5 1.5zm-11.97 0c0 .83-.66 1.5-1.5 1.5-.82 0-1.5-.67-1.5-1.5s.68-1.5 1.5-1.5c.84 0 1.5.67 1.5 1.5zm-11.97 0c0 .83-.67 1.5-1.5 1.5s-1.5-.67-1.5-1.5.67-1.5 1.5-1.5 1.5.67 1.5 1.5zm-11.98 0c0 .83-.67 1.5-1.5 1.5s-1.5-.67-1.5-1.5.67-1.5 1.5-1.5 1.5.67 1.5 1.5zm-11.98 0c0 .83-.67 1.5-1.5 1.5s-1.5-.67-1.5-1.5.67-1.5 1.5-1.5 1.5.67 1.5 1.5zm-11.98 0c0 .83-.68 1.5-1.5 1.5-.84 0-1.5-.67-1.5-1.5s.66-1.5 1.5-1.5c.82 0 1.5.67 1.5 1.5zm-12 0c0 .83-.66 1.5-1.5 1.5-.82 0-1.5-.67-1.5-1.5s.68-1.5 1.5-1.5c.84 0 1.5.67 1.5 1.5zm-11.97 0c0 .83-.68 1.5-1.5 1.5-.83 0-1.5-.67-1.5-1.5s.67-1.5 1.5-1.5c.82 0 1.5.67 1.5 1.5zm-11.98 0c0 .83-.68 1.5-1.5 1.5-.83 0-1.5-.67-1.5-1.5s.67-1.5 1.5-1.5c.82 0 1.5.67 1.5 1.5zm-12 0c0 .83-.66 1.5-1.5 1.5-.8 0-1.5-.67-1.5-1.5s.7-1.5 1.5-1.5c.84 0 1.5.67 1.5 1.5zm-11.97 0c0 .83-.67 1.5-1.5 1.5s-1.5-.67-1.5-1.5.67-1.5 1.5-1.5 1.5.67 1.5 1.5zm-11.98 0c0 .83-.67 1.5-1.5 1.5s-1.5-.67-1.5-1.5.67-1.5 1.5-1.5 1.5.67 1.5 1.5zm-11.98 0c0 .83-.67 1.5-1.5 1.5s-1.5-.67-1.5-1.5.67-1.5 1.5-1.5 1.5.67 1.5 1.5zm-11.98 0c0 .83-.67 1.5-1.5 1.5s-1.5-.67-1.5-1.5.67-1.5 1.5-1.5 1.5.67 1.5 1.5zm-11.98 0c0 .83-.67 1.5-1.5 1.5s-1.5-.67-1.5-1.5.67-1.5 1.5-1.5 1.5.67 1.5 1.5zm-11.98 0c0 .83-.67 1.5-1.5 1.5s-1.5-.67-1.5-1.5.67-1.5 1.5-1.5 1.5.67 1.5 1.5zm-11.98 0c0 .83-.68 1.5-1.5 1.5-.83 0-1.5-.67-1.5-1.5s.67-1.5 1.5-1.5c.82 0 1.5.67 1.5 1.5zm-11.98 0c0 .83-.68 1.5-1.5 1.5-.83 0-1.5-.67-1.5-1.5s.67-1.5 1.5-1.5c.82 0 1.5.67 1.5 1.5zm-12 0c0 .83-.66 1.5-1.5 1.5-.8 0-1.5-.67-1.5-1.5s.7-1.5 1.5-1.5c.84 0 1.5.67 1.5 1.5zm-11.97 0c0 .83-.67 1.5-1.5 1.5s-1.5-.67-1.5-1.5.67-1.5 1.5-1.5 1.5.67 1.5 1.5zm-11.98 0c0 .83-.67 1.5-1.5 1.5s-1.5-.67-1.5-1.5.67-1.5 1.5-1.5 1.5.67 1.5 1.5zm-11.98 0c0 .83-.68 1.5-1.5 1.5-.84 0-1.5-.67-1.5-1.5s.66-1.5 1.5-1.5c.82 0 1.5.67 1.5 1.5zm-12 0c0 .83-.66 1.5-1.5 1.5-.82 0-1.5-.67-1.5-1.5s.68-1.5 1.5-1.5c.84 0 1.5.67 1.5 1.5zm-11.97 0c0 .83-.67 1.5-1.5 1.5s-1.5-.67-1.5-1.5.67-1.5 1.5-1.5 1.5.67 1.5 1.5zm-11.98 0c0 .83-.67 1.5-1.5 1.5s-1.5-.67-1.5-1.5.67-1.5 1.5-1.5 1.5.67 1.5 1.5zm-11.98 0c0 .83-.68 1.5-1.5 1.5-.83 0-1.5-.67-1.5-1.5s.67-1.5 1.5-1.5c.82 0 1.5.67 1.5 1.5zm-12 0c0 .83-.66 1.5-1.5 1.5-.8 0-1.5-.67-1.5-1.5s.7-1.5 1.5-1.5c.84 0 1.5.67 1.5 1.5zm-11.97 0c0 .83-.67 1.5-1.5 1.5-.82 0-1.5-.67-1.5-1.5s.68-1.5 1.5-1.5c.83 0 1.5.67 1.5 1.5zm-11.98 0c0 .83-.67 1.5-1.5 1.5s-1.5-.67-1.5-1.5.67-1.5 1.5-1.5 1.5.67 1.5 1.5zm-11.98 0c0 .83-.67 1.5-1.5 1.5s-1.5-.67-1.5-1.5.67-1.5 1.5-1.5 1.5.67 1.5 1.5zm-11.98 0c0 .83-.67 1.5-1.5 1.5s-1.5-.67-1.5-1.5.67-1.5 1.5-1.5 1.5.67 1.5 1.5zm-11.98 0c0 .83-.67 1.5-1.5 1.5s-1.5-.67-1.5-1.5.67-1.5 1.5-1.5 1.5.67 1.5 1.5zm-11.98 0c0 .83-.67 1.5-1.5 1.5s-1.5-.67-1.5-1.5.67-1.5 1.5-1.5 1.5.67 1.5 1.5zm-11.98 0c0 .83-.67 1.5-1.5 1.5s-1.5-.67-1.5-1.5.67-1.5 1.5-1.5 1.5.67 1.5 1.5zm-11.98 0c0 .83-.68 1.5-1.5 1.5-.83 0-1.5-.67-1.5-1.5s.67-1.5 1.5-1.5c.82 0 1.5.67 1.5 1.5zm-12 0c0 .83-.66 1.5-1.5 1.5-.8 0-1.5-.67-1.5-1.5s.7-1.5 1.5-1.5c.84 0 1.5.67 1.5 1.5zm-11.97 0c0 .83-.67 1.5-1.5 1.5-.82 0-1.5-.67-1.5-1.5s.68-1.5 1.5-1.5c.83 0 1.5.67 1.5 1.5zm-11.98 0c0 .83-.68 1.5-1.5 1.5-.84 0-1.5-.67-1.5-1.5s.66-1.5 1.5-1.5c.82 0 1.5.67 1.5 1.5zm-12 0c0 .83-.66 1.5-1.5 1.5-.82 0-1.5-.67-1.5-1.5s.68-1.5 1.5-1.5c.84 0 1.5.67 1.5 1.5zm-11.97 0c0 .83-.67 1.5-1.5 1.5s-1.5-.67-1.5-1.5.67-1.5 1.5-1.5 1.5.67 1.5 1.5zm-11.98 0c0 .83-.67 1.5-1.5 1.5s-1.5-.67-1.5-1.5.67-1.5 1.5-1.5 1.5.67 1.5 1.5zm-11.98 0c0 .83-.67 1.5-1.5 1.5s-1.5-.67-1.5-1.5.67-1.5 1.5-1.5 1.5.67 1.5 1.5zm-11.98 0c0 .83-.68 1.5-1.5 1.5-.84 0-1.5-.67-1.5-1.5s.66-1.5 1.5-1.5c.82 0 1.5.67 1.5 1.5zm-12 0c0 .83-.67 1.5-1.5 1.5-.82 0-1.5-.67-1.5-1.5s.68-1.5 1.5-1.5c.83 0 1.5.67 1.5 1.5zm-11.98 0c0 .83-.67 1.5-1.5 1.5-.82 0-1.5-.67-1.5-1.5s.68-1.5 1.5-1.5c.83 0 1.5.67 1.5 1.5zm-11.98 0c0 .83-.67 1.5-1.5 1.5s-1.5-.67-1.5-1.5.67-1.5 1.5-1.5 1.5.67 1.5 1.5zm-11.98 0c0 .83-.67 1.5-1.5 1.5s-1.5-.67-1.5-1.5.67-1.5 1.5-1.5 1.5.67 1.5 1.5zm-11.98 0c0 .83-.67 1.5-1.5 1.5s-1.5-.67-1.5-1.5.67-1.5 1.5-1.5 1.5.67 1.5 1.5zM464 620c0 .83-.67 1.5-1.5 1.5s-1.5-.67-1.5-1.5.67-1.5 1.5-1.5 1.5.67 1.5 1.5zm-11.45-2.36c0 .82-.67 1.5-1.5 1.5-.82 0-1.5-.68-1.5-1.5 0-.83.68-1.5 1.5-1.5.83 0 1.5.67 1.5 1.5zm-9.7-6.5c0 .84-.68 1.5-1.5 1.5-.83 0-1.5-.66-1.5-1.5 0-.82.67-1.5 1.5-1.5.82 0 1.5.68 1.5 1.5zm-6.55-9.67c0 .83-.67 1.5-1.5 1.5s-1.5-.67-1.5-1.5.67-1.5 1.5-1.5 1.5.67 1.5 1.5zM434 590c0 .83-.67 1.5-1.5 1.5s-1.5-.67-1.5-1.5.67-1.5 1.5-1.5 1.5.67 1.5 1.5zm0-12c0 .83-.67 1.5-1.5 1.5s-1.5-.67-1.5-1.5.67-1.5 1.5-1.5 1.5.67 1.5 1.5zm0-12c0 .83-.67 1.5-1.5 1.5s-1.5-.67-1.5-1.5.67-1.5 1.5-1.5 1.5.67 1.5 1.5zm0-12c0 .83-.67 1.5-1.5 1.5s-1.5-.67-1.5-1.5.67-1.5 1.5-1.5 1.5.67 1.5 1.5zm0-12c0 .83-.67 1.5-1.5 1.5s-1.5-.67-1.5-1.5.67-1.5 1.5-1.5 1.5.67 1.5 1.5zm0-12c0 .83-.67 1.5-1.5 1.5s-1.5-.67-1.5-1.5.67-1.5 1.5-1.5 1.5.67 1.5 1.5z" fill="#474747"/><path d="M390 686c0-3.3 2.7-6 6-6h768c3.3 0 6 2.7 6 6v108c0 3.3-2.7 6-6 6H396c-3.3 0-6-2.7-6-6z" stroke="#5e5e5e" stroke-width="3" fill="#e5e5e5"/><use xlink:href="#s" transform="matrix(1,0,0,1,395,685) translate(364.0740740740741 59.02777777777778)"/></g><defs><path fill="#333" d="M75-131c50 2 93 3 93-48 0-46-48-41-93-41v89zm0 115c55 4 111 6 111-51 0-53-58-48-111-48v99zm148-52C223 24 102-3 10 0v-9l31-5v-208l-31-4v-10c77 6 193-24 194 56 0 33-20 48-48 54 36 5 67 20 67 58" id="t"/><path fill="#333" d="M10-9l31-5v-208l-31-4v-10h177v57h-11l-6-38c-28-4-63-3-95-3v92h63l6-28h11v73h-11l-6-29H75v96l105-3 10-43h12l-3 62H10v-9" id="u"/><path fill="#333" d="M199-173c-1 36-21 56-49 65l64 94 26 5v9h-57l-66-103H75v89l35 5v9H13v-9l28-5v-208l-31-4v-10c80 4 190-20 189 63zM75-119c50 2 89-1 89-51 0-49-39-52-89-50v101" id="v"/><path fill="#333" d="M55 0v-9l38-5v-207c-22 1-53 0-70 4l-5 37H7v-56h207v56h-12l-5-37-70-3v206l37 5v9H55" id="w"/><g id="a"><use transform="matrix(0.06172839506172839,0,0,0.06172839506172839,0,0)" xlink:href="#t"/><use transform="matrix(0.06172839506172839,0,0,0.06172839506172839,14.814814814814813,0)" xlink:href="#u"/><use transform="matrix(0.06172839506172839,0,0,0.06172839506172839,28.33333333333333,0)" xlink:href="#v"/><use transform="matrix(0.06172839506172839,0,0,0.06172839506172839,41.79012345679011,0)" xlink:href="#w"/></g><path fill="#333" d="M125-118c4-37-41-34-68-26v132l23 4v8H8C5-13 21-9 28-12v-141c-7-3-23 1-20-12h47l2 13c31-23 98-29 98 31v109c7 3 23-1 20 12h-72v-8l22-4v-106" id="x"/><path fill="#333" d="M45-84c0 64 52 80 104 63 1 25-30 25-55 25-56 0-80-32-80-88 0-76 62-98 131-80v46h-10c-5-15-4-31-23-35-47-10-67 21-67 69" id="y"/><path fill="#333" d="M90-170c52 0 76 32 76 87 0 54-24 87-77 87-51 0-75-34-75-87 0-54 24-87 76-87zM89-10c39 0 46-35 46-73 0-39-7-73-46-73-39 1-44 34-44 73s6 72 44 73" id="z"/><path fill="#333" d="M13-81c0-71 46-101 114-85l-1-72-28-4v-8h57v238c8 3 24-2 21 12h-47l-2-12C80 23 13-1 13-81zm77-74c-37 1-44 33-45 74 0 38 9 66 45 66 14 0 27-3 36-7v-130c-10-1-24-3-36-3" id="A"/><path fill="#333" d="M84-170c49 0 66 33 63 87H46c-8 60 38 80 95 63v10C128-2 108 4 88 4 34 4 14-29 14-84c-1-54 22-86 70-86zm33 73c12-57-57-82-69-24-1 7-2 15-2 24h71" id="B"/><path fill="#333" d="M57-145c16-10 35-24 60-25v45c-19 1-8-30-40-17l-20 6v124l29 4v8H7v-8l21-4v-141c-8-3-24 2-21-12h48" id="C"/><g id="b"><use transform="matrix(0.06172839506172839,0,0,0.06172839506172839,0,0)" xlink:href="#u"/><use transform="matrix(0.06172839506172839,0,0,0.06172839506172839,13.518518518518517,0)" xlink:href="#x"/><use transform="matrix(0.06172839506172839,0,0,0.06172839506172839,24.629629629629626,0)" xlink:href="#y"/><use transform="matrix(0.06172839506172839,0,0,0.06172839506172839,34.44444444444444,0)" xlink:href="#z"/><use transform="matrix(0.06172839506172839,0,0,0.06172839506172839,45.55555555555556,0)" xlink:href="#A"/><use transform="matrix(0.06172839506172839,0,0,0.06172839506172839,56.66666666666667,0)" xlink:href="#B"/><use transform="matrix(0.06172839506172839,0,0,0.06172839506172839,66.48148148148148,0)" xlink:href="#C"/></g><path fill="#333" d="M52-115c0 93 80 130 150 87l7-35h11l-1 55c-23 7-52 12-83 12C60 4 19-37 15-115c-5-113 97-141 201-114l1 51h-12l-5-30c-15-9-39-16-62-16-66 0-86 41-86 109" id="D"/><path fill="#333" d="M111-226l-36 4v207c33-1 73 2 101-4l11-49h11l-3 68H10v-9l31-5v-208l-31-4v-10h101v10" id="E"/><path fill="#333" d="M178-68c0 79-95 82-154 59v-54h12c1 35 22 52 60 52 50 0 69-58 33-82-39-24-105-21-105-85 0-67 86-66 142-53v49h-12l-6-29c-31-27-121-7-89 42 28 43 119 24 119 101" id="F"/><g id="c"><use transform="matrix(0.06172839506172839,0,0,0.06172839506172839,0,0)" xlink:href="#D"/><use transform="matrix(0.06172839506172839,0,0,0.06172839506172839,14.814814814814813,0)" xlink:href="#E"/><use transform="matrix(0.06172839506172839,0,0,0.06172839506172839,28.33333333333333,0)" xlink:href="#F"/></g><path fill="#333" d="M240-154L185 4h-14l-41-109L90 4H77L20-153c-7-3-23 1-20-12h79v8l-27 4L91-41l40-108h14l40 109 38-113-28-4v-8h63v8" id="G"/><g id="d"><use transform="matrix(0.06172839506172839,0,0,0.06172839506172839,0,0)" xlink:href="#G"/><use transform="matrix(0.043209876543209874,0,0,0.043209876543209874,15.987654320987653,3.1111111111111107)" xlink:href="#x"/></g><path fill="#333" d="M45-37c13 0 21 8 21 21C67-2 57 4 45 5 33 4 23-2 24-16c0-13 8-21 21-21" id="H"/><g id="e"><use transform="matrix(0.06172839506172839,0,0,0.06172839506172839,0,0)" xlink:href="#H"/><use transform="matrix(0.06172839506172839,0,0,0.06172839506172839,5.555555555555555,0)" xlink:href="#H"/><use transform="matrix(0.06172839506172839,0,0,0.06172839506172839,11.11111111111111,0)" xlink:href="#H"/><use transform="matrix(0.06172839506172839,0,0,0.06172839506172839,16.666666666666664,0)" xlink:href="#H"/><use transform="matrix(0.06172839506172839,0,0,0.06172839506172839,22.22222222222222,0)" xlink:href="#H"/><use transform="matrix(0.06172839506172839,0,0,0.06172839506172839,27.77777777777778,0)" xlink:href="#H"/></g><path fill="#333" d="M152 0h-7L59-203v189l32 5v9H10v-9l31-5v-208l-31-4v-10h72l76 180 84-180h68v10l-31 4v208l31 5v9h-96v-9l32-5v-189" id="I"/><path fill="#333" d="M124-13C89 8 26 15 26-45v-108c-8-3-24 2-21-12h50v118c-3 37 42 32 69 25v-131l-25-4v-8h54v153c8 3 24-2 21 12h-48" id="J"/><path fill="#333" d="M54-38c-1 25 24 26 44 20v12C71 10 25 9 25-35v-115H4c-2-14 14-10 21-15l18-38h11v38h38v15H54v112" id="K"/><path fill="#333" d="M47-200c-23 0-25-39 0-38 13 0 18 7 20 19-1 11-8 19-20 19zM65-12l28 4v8H8v-8l28-4v-141l-24-4v-8h53v153" id="L"/><path fill="#333" d="M65-12l28 4v8H7v-8l28-4v-226l-28-4v-8h58v238" id="M"/><path fill="#333" d="M13-71v-27h94v27H13" id="N"/><path fill="#333" d="M32-163c41-10 102-14 102 39v112c8 3 24-2 21 12h-45l-4-17C83 13 3 13 13-46c-2-50 45-50 92-51 4-36-5-70-42-56-6 2-12 4-16 6-4 7 0 23-15 20v-36zM42-47c0 41 41 33 63 22v-59c-34 1-63-1-63 37" id="O"/><path fill="#333" d="M53-14c58 12 82-15 82-73 0-52-35-77-82-58v131zM89 4C64 4 42-2 24-9v-229l-24-4v-8h53l-1 94c48-33 114-4 114 69 0 57-23 91-77 91" id="P"/><g id="f"><use transform="matrix(0.06172839506172839,0,0,0.06172839506172839,0,0)" xlink:href="#I"/><use transform="matrix(0.06172839506172839,0,0,0.06172839506172839,19.753086419753085,0)" xlink:href="#J"/><use transform="matrix(0.06172839506172839,0,0,0.06172839506172839,30.864197530864196,0)" xlink:href="#K"/><use transform="matrix(0.06172839506172839,0,0,0.06172839506172839,37.03703703703704,0)" xlink:href="#L"/><use transform="matrix(0.06172839506172839,0,0,0.06172839506172839,43.20987654320988,0)" xlink:href="#M"/><use transform="matrix(0.06172839506172839,0,0,0.06172839506172839,49.38271604938272,0)" xlink:href="#N"/><use transform="matrix(0.06172839506172839,0,0,0.06172839506172839,56.7283950617284,0)" xlink:href="#E"/><use transform="matrix(0.06172839506172839,0,0,0.06172839506172839,70.24691358024691,0)" xlink:href="#O"/><use transform="matrix(0.06172839506172839,0,0,0.06172839506172839,80.06172839506172,0)" xlink:href="#P"/><use transform="matrix(0.06172839506172839,0,0,0.06172839506172839,91.17283950617283,0)" xlink:href="#B"/><use transform="matrix(0.06172839506172839,0,0,0.06172839506172839,100.98765432098764,0)" xlink:href="#M"/></g><path fill="#333" d="M41-130c7 48 86 23 86 84 0 56-69 57-112 41v-40c20 0 9 29 31 31 35 19 77-26 41-50-27-18-72-13-72-59 0-50 58-52 100-41v36c-19 1-8-25-28-25-21-7-50-1-46 23" id="Q"/><path fill="#333" d="M103-236c-39-15-35 32-34 71h44v15H69v136l35 6v8H15v-8l25-6v-136H11v-9l29-7c-6-59 23-100 80-84v36c-15 2-12-14-17-22" id="R"/><g id="g"><use transform="matrix(0.06172839506172839,0,0,0.06172839506172839,0,0)" xlink:href="#D"/><use transform="matrix(0.06172839506172839,0,0,0.06172839506172839,14.814814814814813,0)" xlink:href="#M"/><use transform="matrix(0.06172839506172839,0,0,0.06172839506172839,20.98765432098765,0)" xlink:href="#O"/><use transform="matrix(0.06172839506172839,0,0,0.06172839506172839,30.80246913580247,0)" xlink:href="#Q"/><use transform="matrix(0.06172839506172839,0,0,0.06172839506172839,39.44444444444444,0)" xlink:href="#Q"/><use transform="matrix(0.06172839506172839,0,0,0.06172839506172839,48.08641975308642,0)" xlink:href="#L"/><use transform="matrix(0.06172839506172839,0,0,0.06172839506172839,54.25925925925926,0)" xlink:href="#R"/><use transform="matrix(0.06172839506172839,0,0,0.06172839506172839,61.60493827160494,0)" xlink:href="#L"/><use transform="matrix(0.06172839506172839,0,0,0.06172839506172839,67.77777777777777,0)" xlink:href="#y"/><use transform="matrix(0.06172839506172839,0,0,0.06172839506172839,77.59259259259258,0)" xlink:href="#O"/><use transform="matrix(0.06172839506172839,0,0,0.06172839506172839,87.40740740740739,0)" xlink:href="#K"/><use transform="matrix(0.06172839506172839,0,0,0.06172839506172839,93.58024691358023,0)" xlink:href="#L"/><use transform="matrix(0.06172839506172839,0,0,0.06172839506172839,99.75308641975306,0)" xlink:href="#z"/><use transform="matrix(0.06172839506172839,0,0,0.06172839506172839,110.86419753086417,0)" xlink:href="#x"/></g><path fill="#333" d="M110-14l48 5v9H32v-9l48-5v-192l-48 17v-10l69-39h9v224" id="S"/><g id="h"><use transform="matrix(0.06172839506172839,0,0,0.06172839506172839,0,0)" xlink:href="#C"/><use transform="matrix(0.043209876543209874,0,0,0.043209876543209874,7.345679012345679,3.1111111111111107)" xlink:href="#S"/></g><path fill="#333" d="M24-231c66-21 156 2 128 81C132-92 78-66 39-27h121V0H16v-26l59-54c26-25 47-47 47-97 0-48-47-57-81-37l-6 29H24v-46" id="T"/><g id="i"><use transform="matrix(0.06172839506172839,0,0,0.06172839506172839,0,0)" xlink:href="#C"/><use transform="matrix(0.043209876543209874,0,0,0.043209876543209874,7.345679012345679,3.1111111111111107)" xlink:href="#T"/></g><path fill="#333" d="M60-80l68-73c-7-3-20 0-17-12h58c3 13-13 9-20 12l-47 48 60 93c7 3 21-1 18 12h-68c-3-12 9-9 15-12L82-83 60-60v48c7 3 21-1 18 12H10v-8l21-4v-226l-24-4v-8h53v170" id="U"/><g id="j"><use transform="matrix(0.06172839506172839,0,0,0.06172839506172839,0,0)" xlink:href="#C"/><use transform="matrix(0.043209876543209874,0,0,0.043209876543209874,7.345679012345679,3.1111111111111107)" xlink:href="#U"/></g><path fill="#333" d="M10 0v-9l31-5v-208l-31-4v-10h95v10l-30 4v93h110v-93l-30-4v-10h94v10l-30 4v208l30 5v9h-94v-9l30-5v-99H75v99l30 5v9H10" id="V"/><use transform="matrix(0.06172839506172839,0,0,0.06172839506172839,0,0)" xlink:href="#V" id="k"/><g id="l"><use transform="matrix(0.06172839506172839,0,0,0.06172839506172839,0,0)" xlink:href="#V"/><use transform="matrix(0.043209876543209874,0,0,0.043209876543209874,15.987654320987653,3.1111111111111107)" xlink:href="#Q"/></g><g id="m"><use transform="matrix(0.06172839506172839,0,0,0.06172839506172839,0,0)" xlink:href="#V"/><use transform="matrix(0.043209876543209874,0,0,0.043209876543209874,15.987654320987653,3.1111111111111107)" xlink:href="#z"/></g><g id="n"><use transform="matrix(0.06172839506172839,0,0,0.06172839506172839,0,0)" xlink:href="#G"/><use transform="matrix(0.043209876543209874,0,0,0.043209876543209874,15.987654320987653,3.1111111111111107)" xlink:href="#T"/></g><g id="o"><use transform="matrix(0.06172839506172839,0,0,0.06172839506172839,0,0)" xlink:href="#G"/><use transform="matrix(0.043209876543209874,0,0,0.043209876543209874,15.987654320987653,3.1111111111111107)" xlink:href="#S"/></g><path fill="#333" d="M75-108c48 3 76-12 76-58s-28-57-76-54v112zm111-58c-1 60-46 78-111 74v78l37 5v9H13v-9l28-5v-208l-31-4v-10c81 1 178-14 176 70" id="W"/><g id="p"><use transform="matrix(0.06172839506172839,0,0,0.06172839506172839,0,0)" xlink:href="#W"/><use transform="matrix(0.06172839506172839,0,0,0.06172839506172839,12.345679012345679,0)" xlink:href="#z"/><use transform="matrix(0.06172839506172839,0,0,0.06172839506172839,23.45679012345679,0)" xlink:href="#K"/><use transform="matrix(0.06172839506172839,0,0,0.06172839506172839,29.62962962962963,0)" xlink:href="#B"/><use transform="matrix(0.06172839506172839,0,0,0.06172839506172839,39.44444444444444,0)" xlink:href="#x"/><use transform="matrix(0.06172839506172839,0,0,0.06172839506172839,50.55555555555556,0)" xlink:href="#K"/><use transform="matrix(0.06172839506172839,0,0,0.06172839506172839,56.7283950617284,0)" xlink:href="#L"/><use transform="matrix(0.06172839506172839,0,0,0.06172839506172839,62.90123456790124,0)" xlink:href="#O"/><use transform="matrix(0.06172839506172839,0,0,0.06172839506172839,72.71604938271605,0)" xlink:href="#M"/></g><g id="q"><use transform="matrix(0.06172839506172839,0,0,0.06172839506172839,0,0)" xlink:href="#v"/><use transform="matrix(0.06172839506172839,0,0,0.06172839506172839,14.814814814814813,0)" xlink:href="#B"/><use transform="matrix(0.06172839506172839,0,0,0.06172839506172839,24.629629629629626,0)" xlink:href="#M"/><use transform="matrix(0.06172839506172839,0,0,0.06172839506172839,30.802469135802465,0)" xlink:href="#O"/><use transform="matrix(0.06172839506172839,0,0,0.06172839506172839,40.61728395061728,0)" xlink:href="#K"/><use transform="matrix(0.06172839506172839,0,0,0.06172839506172839,46.79012345679012,0)" xlink:href="#L"/><use transform="matrix(0.06172839506172839,0,0,0.06172839506172839,52.96296296296296,0)" xlink:href="#z"/><use transform="matrix(0.06172839506172839,0,0,0.06172839506172839,64.07407407407408,0)" xlink:href="#x"/></g><g id="r"><use transform="matrix(0.06172839506172839,0,0,0.06172839506172839,0,0)" xlink:href="#W"/><use transform="matrix(0.06172839506172839,0,0,0.06172839506172839,12.345679012345679,0)" xlink:href="#C"/><use transform="matrix(0.06172839506172839,0,0,0.06172839506172839,19.691358024691358,0)" xlink:href="#B"/><use transform="matrix(0.06172839506172839,0,0,0.06172839506172839,29.50617283950617,0)" xlink:href="#A"/><use transform="matrix(0.06172839506172839,0,0,0.06172839506172839,40.61728395061728,0)" xlink:href="#L"/><use transform="matrix(0.06172839506172839,0,0,0.06172839506172839,46.79012345679012,0)" xlink:href="#y"/><use transform="matrix(0.06172839506172839,0,0,0.06172839506172839,56.60493827160494,0)" xlink:href="#K"/><use transform="matrix(0.06172839506172839,0,0,0.06172839506172839,62.77777777777778,0)" xlink:href="#L"/><use transform="matrix(0.06172839506172839,0,0,0.06172839506172839,68.95061728395062,0)" xlink:href="#z"/><use transform="matrix(0.06172839506172839,0,0,0.06172839506172839,80.06172839506173,0)" xlink:href="#x"/></g><path fill="#333" d="M75-106v92l39 5v9H13v-9l28-5v-208l-31-4v-10h177v57h-11l-6-38c-28-4-63-3-95-3v98h69l5-28h11v73h-11l-5-29H75" id="X"/><path fill="#333" d="M52-115c0 90 69 126 140 93v-67l-30-5v-9h87v9l-23 5v77c-27 8-56 16-90 16C59 2 15-37 15-115c-1-82 41-123 122-123 31 0 59 4 83 10v51h-12l-5-29c-15-12-38-18-65-18-66-1-86 42-86 109" id="Y"/><g id="s"><use transform="matrix(0.06172839506172839,0,0,0.06172839506172839,0,0)" xlink:href="#w"/><use transform="matrix(0.06172839506172839,0,0,0.06172839506172839,13.518518518518517,0)" xlink:href="#X"/><use transform="matrix(0.06172839506172839,0,0,0.06172839506172839,25.864197530864196,0)" xlink:href="#Y"/></g></defs></g></svg>